<?xml version="1.0" encoding="UTF-8" standalone="no"?>
<!-- Created with Inkscape (http://www.inkscape.org/) -->

<svg
   xmlns:dc="http://purl.org/dc/elements/1.1/"
   xmlns:cc="http://creativecommons.org/ns#"
   xmlns:rdf="http://www.w3.org/1999/02/22-rdf-syntax-ns#"
   xmlns:svg="http://www.w3.org/2000/svg"
   xmlns="http://www.w3.org/2000/svg"
   xmlns:sodipodi="http://sodipodi.sourceforge.net/DTD/sodipodi-0.dtd"
   xmlns:inkscape="http://www.inkscape.org/namespaces/inkscape"
   width="36.633602mm"
   height="17.9578mm"
   viewBox="0 0 36.633602 17.9578"
   version="1.1"
   id="svg8"
   inkscape:version="0.92.4 (5da689c313, 2019-01-14)"
   sodipodi:docname="logo.svg">
  <defs
     id="defs2" />
  <sodipodi:namedview
     id="base"
     pagecolor="#ffffff"
     bordercolor="#666666"
     borderopacity="1.0"
     inkscape:pageopacity="0.0"
     inkscape:pageshadow="2"
     inkscape:zoom="0.98994949"
     inkscape:cx="-213.11344"
     inkscape:cy="-181.42293"
     inkscape:document-units="mm"
     inkscape:current-layer="layer1"
     showgrid="false"
     inkscape:window-width="1920"
     inkscape:window-height="1017"
     inkscape:window-x="-8"
     inkscape:window-y="-8"
     inkscape:window-maximized="1"
     inkscape:pagecheckerboard="true"
     fit-margin-top="0"
     fit-margin-left="0"
     fit-margin-right="0"
     fit-margin-bottom="0" />
  <metadata
     id="metadata5">
    <rdf:RDF>
      <cc:Work
         rdf:about="">
        <dc:format>image/svg+xml</dc:format>
        <dc:type
           rdf:resource="http://purl.org/dc/dcmitype/StillImage" />
        <dc:title></dc:title>
      </cc:Work>
    </rdf:RDF>
  </metadata>
  <g
     inkscape:label="Layer 1"
     inkscape:groupmode="layer"
     id="layer1"
     transform="translate(-0.76249879,-1.3038146)">
    <flowRoot
       xml:space="preserve"
       id="flowRoot815"
       style="font-style:normal;font-weight:normal;font-size:85.33333588px;line-height:1.25;font-family:sans-serif;letter-spacing:0px;word-spacing:0px;fill:#000000;fill-opacity:1;stroke:none"><flowRegion
         id="flowRegion817"
         style="font-size:85.33333588px"><rect
           id="rect819"
           width="517.14288"
           height="337.14285"
           x="88.571426"
           y="128.23398"
           style="font-size:85.33333588px" /></flowRegion><flowPara
         id="flowPara821" /></flowRoot>    <g
       aria-label="JM"
       transform="matrix(0.26458333,0,0,0.26458333,-30.201457,-45.703089)"
       style="font-style:normal;font-weight:normal;font-size:40px;line-height:1.25;font-family:sans-serif;letter-spacing:0px;word-spacing:0px;fill:#000000;fill-opacity:1;stroke:none"
       id="flowRoot823">
      <path
         d="m 170.61084,182.46389 h -37.056 v -4.8 h 37.056 z m 0,9.312 h -37.056 v -4.8 h 37.056 z m -9.216,8.544 h -18.432 v -4.128 h 18.432 z m 0,8.544 h -18.432 v -4.224 h 18.432 z m 0,8.256 h -18.432 v -4.416 h 18.432 z m 0,9.6 h -18.432 v -5.376 h 18.432 z m -0.096,4.608 q 0,2.304 -0.576,4.8 h -43.2 q -0.576,-2.016 -0.48,-4.8 z m -26.496,-4.608 h -17.76 v -5.376 h 17.76 z m 23.712,14.016 q -3.552,4.704 -13.728,4.704 h -11.424 q -9.408,0 -13.536,-4.704 z"
         style="font-style:normal;font-variant:normal;font-weight:normal;font-stretch:normal;font-size:96px;font-family:MeninBlue;-inkscape-font-specification:MeninBlue"
         id="path820"
         inkscape:connector-curvature="0" />
      <path
         d="m 255.48684,182.55989 h -30.72 l 2.112,-4.8 h 28.608 z m 0,9.312 h -35.04 l 2.208,-4.8 h 32.832 z m -9.216,8.544 h -29.76 l 1.92,-4.128 h 27.84 z m 0,16.8 h -17.472 v -4.416 h 17.472 z m 0,9.6 h -17.472 v -5.376 h 17.472 z m 9.216,9.408 h -26.688 v -4.8 h 26.688 z m -9.216,-27.36 h -17.472 v -2.88 l -1.152,2.88 h -29.568 l -1.248,-3.168 v 3.168 h -16.896 v -4.224 h 31.872 l 1.44,2.976 1.344,-2.976 h 31.68 z m -45.12,-26.4 h -30.528 v -4.8 h 28.224 z m 54.336,63.072 h -26.688 v -4.704 h 26.688 z m -49.92,-53.76 h -34.944 v -4.8 h 32.64 z m 20.544,20.928 -1.728,4.416 h -22.944 l -1.824,-4.416 z m -16.32,-12.384 h -29.856 v -4.128 h 27.84 z m 12.96,21.024 -2.208,5.376 h -15.168 l -2.208,-5.376 z m -4.032,9.984 -1.824,4.8 h -7.68 l -1.92,-4.8 z m -21.888,-14.208 h -16.896 v -4.416 h 16.896 z m 18.24,23.616 -1.92,4.8 -2.016,-4.8 z m -18.24,-14.016 h -16.896 v -5.376 h 16.896 z m 0,9.408 h -26.208 v -4.8 h 26.208 z m 0,9.312 h -26.208 v -4.704 h 26.208 z"
         style="font-style:normal;font-variant:normal;font-weight:normal;font-stretch:normal;font-size:96px;font-family:MeninBlue;-inkscape-font-specification:MeninBlue"
         id="path822"
         inkscape:connector-curvature="0" />
    </g>
  </g>
</svg>
