<?xml version="1.0" encoding="utf-8"?>
<!-- Generator: Adobe Illustrator 19.2.1, SVG Export Plug-In . SVG Version: 6.00 Build 0)  -->
<svg version="1.1" id="Layer_2" xmlns="http://www.w3.org/2000/svg" xmlns:xlink="http://www.w3.org/1999/xlink" x="0px" y="0px"
	 viewBox="0 0 612 792" style="enable-background:new 0 0 612 792;" xml:space="preserve">
<style type="text/css">
	.st0{fill:#FFFFFF;}
	.st1{fill:#EFE439;stroke:#231F20;stroke-width:1.0095;}
	.st2{fill:#EFE49D;}
	.st3{fill:#23221F;stroke:#231F20;stroke-width:1.0414;}
	.st4{fill:#23221F;}
	.st5{fill:none;stroke:#231F20;}
</style>
<ellipse class="st0" cx="311" cy="399.5" rx="45.9" ry="46.4"/>
<path class="st1" d="M351,399.8c-1.2-23.9-21.7-41.5-43-40.2c-17.7,1.1-33.4,15.1-37,34.2"/>
<circle class="st2" cx="323.5" cy="375.8" r="10.8"/>
<path class="st3" d="M265.1,395.3c12.1-3.2,10.2-1.4,12.1-3.2c1.9-1.8,6.1-4.2,6.1-7.5c0-3.3,42.5-5.6,42.5-5.6s1.4,5.3,6.5,7.1
	c5.1,1.8-1.8,5.5,24.4,12.7"/>
<path class="st4" d="M265.1,395.3l91.6,3.5c0,0,0.4,20.5-10.4,30.2s-21.1,19.2-35.4,16.9c-14.3-2.3-30.7-6.3-37.7-19.9
	C266.3,412.3,264.4,406.3,265.1,395.3z"/>
<polygon class="st2" points="356.5,405.2 315,405.2 265.1,405.2 265.1,402.8 356.5,402.8 "/>
<path class="st2" d="M315,405.2c0,0-11.5,1.8-14,4.7c-2.5,2.8-9.8,1.5-13,1.8c-3.2,0.3-19.8,2.2-20.1,3.8c-0.4,1.7-1.5-5.2-1.5-5.2
	s19.5-2.5,24.3-2.3s4.8-2.8,4.8-2.8H315z"/>
<rect x="327.7" y="406.9" class="st2" width="28.6" height="2.1"/>
<path class="st2" d="M327.7,406.9c0,0-10.7,0.9-12.7,3.6c-2,2.7-3.5,2.9-6.3,3.4c-2.8,0.5-33.4,12.2-34.5,13.4s3.7,4.5,3.7,4.5
	s24.5-12.8,29.8-14.2c5.3-1.3,10.3-3.3,10.3-3.3s2.5-5.2,9.7-5.2C334.8,409,327.7,406.9,327.7,406.9z"/>
<path class="st2" d="M298.2,447.1"/>
<path class="st4" d="M307.2,445.6c-3.1,0.1-6.2-0.5-9.1-1.7c-0.6-0.2-1.2-0.5-1.8-0.7c-1.2-0.3-2.5-0.2-3.4-1
	c-0.1-0.1-0.2-0.2-0.2-0.3c0-0.1,0.1-0.2,0.1-0.3c0.3-0.4,0.9-0.5,1.5-0.5c3.4,0,6.8,0.5,10.1,1.6c0.4,0.1,0.9,0.3,1.2,0.7
	c0.1,0.2,0.2,0.4,0.3,0.6c0.3,0.5,0.9,0.6,1.4,0.7c0,0.3-0.1,0.6-0.3,0.8"/>
<path class="st2" d="M327.7,409c0,0-0.3,1.5-1.2,2.2c-0.8,0.7-3.2,1.5-4.3,4.6c-1.2,3.1-9-0.3-14.3,5.1c-5.3,5.3-9.6,2.1-17.2,8.8
	c-7.6,6.7-7.6,6.7-7.6,6.7l15.1,7.7c0,0,2.1-8.8,5.9-11.1c3.8-2.3,10.8-9.3,14.2-11.3c3.3-2,9.5-5.3,10.3-7.2c0.8-1.8,0-2.6,3-4
	s3-1.5,3-1.5H327.7z"/>
<path class="st2" d="M355.3,411.3c0,0-9.2-0.9-11.7,0s4.5,4.1,10.2,4.5L355.3,411.3z"/>
<path class="st4" d="M342.9,430.6c0.2,0.3,0.3,0.6,0.4,0.9c0,0.1,0.1,0.3,0.1,0.4c0,0.1-0.1,0.2-0.2,0.3c-1,1.2-2,2.2-3.2,3.2
	c-1,0.8-2.1,1.6-3.4,1.5c-0.2-0.4,0-0.9,0.3-1.3c0.3-0.4,0.5-0.8,0.8-1.1c0.4-0.6,0.9-1.2,1.5-1.7c1.2-0.9,2.9-1,3.8-2.2"/>
<ellipse class="st5" cx="310.9" cy="399.5" rx="45.9" ry="46.4"/>
</svg>
