<?xml version="1.0" encoding="utf-8"?>
<!-- Generator: Adobe Illustrator 19.2.1, SVG Export Plug-In . SVG Version: 6.00 Build 0)  -->
<svg version="1.1"
	 id="svg2" xmlns:cc="http://creativecommons.org/ns#" xmlns:dc="http://purl.org/dc/elements/1.1/" xmlns:rdf="http://www.w3.org/1999/02/22-rdf-syntax-ns#" xmlns:svg="http://www.w3.org/2000/svg"
	 xmlns="http://www.w3.org/2000/svg" xmlns:xlink="http://www.w3.org/1999/xlink" x="0px" y="0px" viewBox="0 0 639 135"
	 style="enable-background:new 0 0 639 135;" xml:space="preserve">
<metadata><?xpacket begin="﻿" id="W5M0MpCehiHzreSzNTczkc9d"?>
<x:xmpmeta xmlns:x="adobe:ns:meta/" x:xmptk="Adobe XMP Core 5.6-c111 79.158366, 2015/09/25-01:12:00        ">
   <rdf:RDF xmlns:rdf="http://www.w3.org/1999/02/22-rdf-syntax-ns#">
      <rdf:Description rdf:about=""/>
   </rdf:RDF>
</x:xmpmeta>
                                                                                                    
                                                                                                    
                                                                                                    
                                                                                                    
                                                                                                    
                                                                                                    
                                                                                                    
                                                                                                    
                                                                                                    
                                                                                                    
                                                                                                    
                                                                                                    
                                                                                                    
                                                                                                    
                                                                                                    
                                                                                                    
                                                                                                    
                                                                                                    
                                                                                                    
                                                                                                    
                           
<?xpacket end="w"?></metadata>
<style type="text/css">
	.st0{fill:#FF5525;}
	.st1{fill:#3D8AFF;}
	.st2{fill:#231F20;stroke:#231F20;stroke-miterlimit:10;}
</style>
<g id="layer1" transform="translate(-11.656 -7.0945)">
	<path id="path2441" class="st0" d="M82,118.6c147.3-131.4-123.6-102-3.4-8.3c6.9,5.7-11.3,10.9-15.4,4.5
		c-98-128.6,201.3-113,20.3,8.5C77.8,127.2,75.3,124.1,82,118.6z"/>
	<path id="path2471" class="st1" d="M97.2,45.3c-174.8,138.6,172.7,43-27.1,49.5C331.3,83.1-124.1,203,99.7,38.5
		C101.9,36.3,99.4,43.2,97.2,45.3z"/>
	<path id="path3273" class="st0" d="M96.9,25.1c-28.6,0.6-58.9,16.8-53.2,50h5.2C27.2,15.2,188.2,6.5,101,100.2v10.7
		C174.4,54.3,137.4,24.2,96.9,25.1z"/>
</g>
<g>
	<path class="st2" d="M184.6,88.5h-15.5l-4.4,15.4h-5.8L175.5,48h3.2l16.6,55.9h-6.2L184.6,88.5z M170.7,83.4h12.5l-4.8-17.1L177,58
		h-0.2l-1.5,8.5L170.7,83.4z"/>
	<path class="st2" d="M221.1,101.9c-1.3,1-2.8,1.7-4.5,2.2c-1.7,0.5-3.4,0.7-5.3,0.7c-2.5,0-4.6-0.5-6.4-1.5s-3.1-2.4-4.2-4.2
		c-1.1-1.8-1.9-4-2.4-6.5c-0.5-2.5-0.7-5.4-0.7-8.4c0-6.7,1.2-11.8,3.6-15.3c2.4-3.5,5.8-5.3,10.3-5.3c2,0,3.8,0.2,5.3,0.6
		c1.5,0.4,2.7,0.8,3.8,1.4l-1.6,5c-2.1-1.2-4.4-1.8-6.8-1.8c-2.8,0-5,1.2-6.4,3.7c-1.4,2.5-2.2,6.4-2.2,11.7c0,2.1,0.2,4.2,0.5,6
		c0.3,1.9,0.8,3.5,1.6,4.9c0.7,1.4,1.7,2.5,2.8,3.3c1.2,0.8,2.6,1.2,4.3,1.2c1.4,0,2.6-0.2,3.8-0.7c1.2-0.5,2.1-1,2.9-1.6
		L221.1,101.9z"/>
	<path class="st2" d="M245.8,103.9V80.6c0-2.1-0.1-3.9-0.2-5.4c-0.1-1.5-0.4-2.7-0.8-3.7c-0.4-0.9-1-1.6-1.7-2.1
		c-0.7-0.4-1.7-0.7-2.9-0.7c-1.8,0-3.3,0.7-4.5,2.1c-1.2,1.4-2.1,3-2.6,4.8v28.3h-5.7V64.6h4l1,4.2h0.2c1.1-1.5,2.4-2.8,3.9-3.7
		c1.5-0.9,3.5-1.4,5.8-1.4c2,0,3.6,0.4,4.9,1.3c1.3,0.9,2.3,2.4,3,4.6c0.9-1.8,2.3-3.3,4-4.3c1.8-1,3.7-1.6,5.8-1.6
		c1.7,0,3.2,0.2,4.4,0.7c1.2,0.4,2.2,1.2,3,2.4c0.8,1.1,1.3,2.6,1.7,4.5c0.4,1.9,0.5,4.2,0.5,7v25.7h-5.7v-25c0-3.4-0.3-5.9-1-7.6
		c-0.7-1.7-2.2-2.5-4.5-2.5c-2,0-3.6,0.6-4.8,1.8c-1.2,1.2-2,2.9-2.5,5v28.3H245.8z"/>
	<path class="st2" d="M302.1,101.2c-1.3,1.2-2.9,2-4.8,2.7c-1.9,0.6-4,0.9-6.1,0.9c-2.5,0-4.6-0.5-6.4-1.5c-1.8-1-3.3-2.4-4.5-4.2
		c-1.2-1.8-2-4-2.6-6.5c-0.5-2.5-0.8-5.3-0.8-8.5c0-6.7,1.2-11.8,3.7-15.3c2.5-3.5,5.9-5.3,10.5-5.3c1.5,0,2.9,0.2,4.4,0.6
		c1.4,0.4,2.7,1.1,3.9,2.2c1.2,1.1,2.1,2.6,2.8,4.6c0.7,2,1.1,4.6,1.1,7.8c0,0.9,0,1.8-0.1,2.9c-0.1,1-0.2,2.1-0.3,3.2h-20
		c0,2.3,0.2,4.3,0.5,6.1c0.4,1.8,0.9,3.4,1.7,4.7c0.8,1.3,1.8,2.3,3,3c1.2,0.7,2.8,1.1,4.6,1.1c1.4,0,2.8-0.3,4.2-0.8
		c1.4-0.5,2.4-1.2,3.2-1.9L302.1,101.2z M297.7,80.2c0.1-3.9-0.4-6.8-1.6-8.6c-1.2-1.8-2.9-2.8-5-2.8c-2.4,0-4.3,0.9-5.7,2.8
		c-1.4,1.8-2.3,4.7-2.5,8.6H297.7z"/>
	<path class="st2" d="M328.1,48.9h24.4v5.4H334v18.6H351v5.4H334v20.1h18.9v5.4h-24.8V48.9z"/>
	<path class="st2" d="M381.5,103.9v-24c0-3.9-0.5-6.8-1.4-8.5c-0.9-1.8-2.6-2.6-4.9-2.6c-2.1,0-3.8,0.6-5.2,1.9
		c-1.4,1.3-2.4,2.8-3,4.6v28.6h-5.7V64.6h4.1l1,4.2h0.2c1-1.4,2.3-2.6,4-3.6c1.7-1,3.7-1.5,6.1-1.5c1.7,0,3.2,0.2,4.4,0.7
		c1.3,0.5,2.4,1.3,3.2,2.4c0.9,1.1,1.5,2.6,2,4.5c0.4,1.9,0.7,4.3,0.7,7.2v25.5H381.5z"/>
	<path class="st2" d="M391.9,64.6h4.8v-7.8l5.7-1.8v9.6h8.5v5.1h-8.5v23.4c0,2.3,0.3,4,0.8,5c0.6,1,1.5,1.5,2.7,1.5
		c1,0,2-0.1,2.7-0.4c0.8-0.2,1.6-0.5,2.5-0.9l1.1,4.5c-1.2,0.6-2.4,1-3.8,1.4c-1.4,0.3-2.8,0.5-4.4,0.5c-2.6,0-4.5-0.9-5.6-2.6
		c-1.1-1.7-1.7-4.5-1.7-8.3V69.7h-4.8V64.6z"/>
	<path class="st2" d="M440.3,101.2c-1.3,1.2-2.9,2-4.8,2.7c-1.9,0.6-4,0.9-6.1,0.9c-2.5,0-4.6-0.5-6.4-1.5c-1.8-1-3.3-2.4-4.5-4.2
		c-1.2-1.8-2-4-2.6-6.5c-0.5-2.5-0.8-5.3-0.8-8.5c0-6.7,1.2-11.8,3.7-15.3c2.5-3.5,5.9-5.3,10.5-5.3c1.5,0,2.9,0.2,4.4,0.6
		c1.4,0.4,2.7,1.1,3.9,2.2c1.2,1.1,2.1,2.6,2.8,4.6c0.7,2,1.1,4.6,1.1,7.8c0,0.9,0,1.8-0.1,2.9c-0.1,1-0.2,2.1-0.3,3.2h-20
		c0,2.3,0.2,4.3,0.5,6.1c0.4,1.8,0.9,3.4,1.7,4.7c0.8,1.3,1.8,2.3,3,3c1.2,0.7,2.8,1.1,4.6,1.1c1.4,0,2.8-0.3,4.2-0.8
		c1.4-0.5,2.4-1.2,3.2-1.9L440.3,101.2z M435.9,80.2c0.1-3.9-0.4-6.8-1.6-8.6c-1.2-1.8-2.9-2.8-5-2.8c-2.4,0-4.3,0.9-5.7,2.8
		c-1.4,1.8-2.3,4.7-2.5,8.6H435.9z"/>
	<path class="st2" d="M449.3,64.6h4l1,4.2h0.2c0.7-1.5,1.7-2.7,2.9-3.6c1.2-0.9,2.6-1.3,4.3-1.3c1.2,0,2.6,0.2,4.1,0.7l-1.1,5.7
		c-1.4-0.5-2.6-0.7-3.6-0.7c-1.7,0-3,0.5-4.1,1.5c-1,1-1.7,2.3-2,3.9v28.9h-5.7V64.6z"/>
	<path class="st2" d="M470.8,64.6h4l0.9,4.2h0.3c1.9-3.5,5-5.2,9.1-5.2c4.1,0,7.2,1.5,9.3,4.6c2.1,3.1,3.1,8.1,3.1,15.2
		c0,3.3-0.3,6.3-1,8.9c-0.7,2.6-1.7,4.9-2.9,6.8c-1.3,1.9-2.8,3.3-4.6,4.2s-3.8,1.5-6,1.5c-1.5,0-2.7-0.1-3.6-0.3
		c-0.9-0.2-1.9-0.6-2.9-1.1v16.2h-5.7V64.6z M476.5,97.7c0.7,0.6,1.6,1.1,2.5,1.5c0.9,0.4,2.1,0.6,3.7,0.6c2.8,0,5-1.4,6.6-4.2
		c1.6-2.8,2.4-6.9,2.4-12.1c0-2.2-0.1-4.2-0.4-6c-0.3-1.8-0.7-3.3-1.4-4.6c-0.6-1.3-1.4-2.3-2.4-3c-1-0.7-2.2-1.1-3.6-1.1
		c-3.8,0-6.3,2.3-7.4,7V97.7z"/>
	<path class="st2" d="M505,64.6h4l1,4.2h0.2c0.7-1.5,1.7-2.7,2.9-3.6c1.2-0.9,2.6-1.3,4.3-1.3c1.2,0,2.6,0.2,4.1,0.7l-1.1,5.7
		c-1.4-0.5-2.6-0.7-3.6-0.7c-1.7,0-3,0.5-4.1,1.5c-1,1-1.7,2.3-2,3.9v28.9H505V64.6z"/>
	<path class="st2" d="M526.5,52.7c0-1.3,0.4-2.3,1.1-3.1s1.6-1.2,2.8-1.2s2.1,0.4,2.9,1.1c0.8,0.8,1.1,1.8,1.1,3.1
		c0,1.3-0.4,2.2-1.1,2.9c-0.8,0.7-1.7,1.1-2.9,1.1s-2.1-0.4-2.8-1.1C526.8,54.8,526.5,53.9,526.5,52.7z M527.5,64.6h5.7v39.3h-5.7
		V64.6z"/>
	<path class="st2" d="M543,97.4c1,0.6,2.3,1.2,3.7,1.6c1.4,0.4,2.9,0.7,4.4,0.7c1.7,0,3.2-0.4,4.4-1.3s1.8-2.3,1.8-4.2
		c0-1.6-0.4-3-1.1-4c-0.7-1.1-1.7-2-2.8-2.8c-1.1-0.8-2.3-1.6-3.7-2.3c-1.3-0.7-2.5-1.6-3.7-2.5c-1.1-1-2.1-2.2-2.8-3.5
		c-0.7-1.4-1.1-3.1-1.1-5.2c0-3.3,0.9-5.9,2.7-7.6c1.8-1.7,4.4-2.5,7.7-2.5c2.1,0,4,0.2,5.6,0.6c1.6,0.4,2.9,0.9,4.1,1.6l-1.5,4.7
		c-1-0.5-2.1-1-3.5-1.3c-1.3-0.3-2.6-0.5-4-0.5c-1.9,0-3.3,0.4-4.1,1.2c-0.9,0.8-1.3,2-1.3,3.7c0,1.3,0.4,2.4,1.1,3.3
		c0.7,0.9,1.7,1.8,2.8,2.5c1.1,0.8,2.3,1.5,3.7,2.3c1.3,0.8,2.5,1.7,3.7,2.8c1.1,1.1,2.1,2.4,2.8,3.8c0.7,1.5,1.1,3.4,1.1,5.6
		c0,1.5-0.2,2.9-0.7,4.2c-0.5,1.3-1.2,2.4-2.2,3.4c-1,1-2.2,1.7-3.6,2.3c-1.4,0.6-3.1,0.9-5.1,0.9c-2.3,0-4.3-0.2-6-0.7
		c-1.7-0.4-3.1-1-4.2-1.8L543,97.4z"/>
	<path class="st2" d="M593.6,101.2c-1.3,1.2-2.9,2-4.8,2.7c-1.9,0.6-4,0.9-6.1,0.9c-2.5,0-4.6-0.5-6.4-1.5c-1.8-1-3.3-2.4-4.5-4.2
		c-1.2-1.8-2-4-2.6-6.5c-0.5-2.5-0.8-5.3-0.8-8.5c0-6.7,1.2-11.8,3.7-15.3c2.5-3.5,5.9-5.3,10.5-5.3c1.5,0,2.9,0.2,4.4,0.6
		c1.4,0.4,2.7,1.1,3.9,2.2c1.2,1.1,2.1,2.6,2.8,4.6c0.7,2,1.1,4.6,1.1,7.8c0,0.9,0,1.8-0.1,2.9c-0.1,1-0.2,2.1-0.3,3.2h-20
		c0,2.3,0.2,4.3,0.5,6.1c0.4,1.8,0.9,3.4,1.7,4.7c0.8,1.3,1.8,2.3,3,3c1.2,0.7,2.8,1.1,4.6,1.1c1.4,0,2.8-0.3,4.2-0.8
		c1.4-0.5,2.4-1.2,3.2-1.9L593.6,101.2z M589.2,80.2c0.1-3.9-0.4-6.8-1.6-8.6c-1.2-1.8-2.9-2.8-5-2.8c-2.4,0-4.3,0.9-5.7,2.8
		c-1.4,1.8-2.3,4.7-2.5,8.6H589.2z"/>
	<path class="st2" d="M602,97.4c1,0.6,2.3,1.2,3.7,1.6c1.4,0.4,2.9,0.7,4.4,0.7c1.7,0,3.2-0.4,4.4-1.3s1.8-2.3,1.8-4.2
		c0-1.6-0.4-3-1.1-4c-0.7-1.1-1.7-2-2.8-2.8c-1.1-0.8-2.3-1.6-3.7-2.3c-1.3-0.7-2.5-1.6-3.7-2.5c-1.1-1-2.1-2.2-2.8-3.5
		c-0.7-1.4-1.1-3.1-1.1-5.2c0-3.3,0.9-5.9,2.7-7.6c1.8-1.7,4.4-2.5,7.7-2.5c2.1,0,4,0.2,5.6,0.6c1.6,0.4,2.9,0.9,4.1,1.6l-1.5,4.7
		c-1-0.5-2.1-1-3.5-1.3c-1.3-0.3-2.6-0.5-4-0.5c-1.9,0-3.3,0.4-4.1,1.2c-0.9,0.8-1.3,2-1.3,3.7c0,1.3,0.4,2.4,1.1,3.3
		c0.7,0.9,1.7,1.8,2.8,2.5c1.1,0.8,2.3,1.5,3.7,2.3c1.3,0.8,2.5,1.7,3.7,2.8c1.1,1.1,2.1,2.4,2.8,3.8c0.7,1.5,1.1,3.4,1.1,5.6
		c0,1.5-0.2,2.9-0.7,4.2c-0.5,1.3-1.2,2.4-2.2,3.4c-1,1-2.2,1.7-3.6,2.3c-1.4,0.6-3.1,0.9-5.1,0.9c-2.3,0-4.3-0.2-6-0.7
		c-1.7-0.4-3.1-1-4.2-1.8L602,97.4z"/>
</g>
</svg>
