<?xml version="1.0" encoding="UTF-8" standalone="no"?>
<!-- Created with Inkscape (http://www.inkscape.org/) -->

<svg
   xmlns:dc="http://purl.org/dc/elements/1.1/"
   xmlns:cc="http://creativecommons.org/ns#"
   xmlns:rdf="http://www.w3.org/1999/02/22-rdf-syntax-ns#"
   xmlns:svg="http://www.w3.org/2000/svg"
   xmlns="http://www.w3.org/2000/svg"
   xmlns:sodipodi="http://sodipodi.sourceforge.net/DTD/sodipodi-0.dtd"
   xmlns:inkscape="http://www.inkscape.org/namespaces/inkscape"
   width="465"
   height="300"
   viewBox="0 0 465 300.00001"
   id="svg4194"
   version="1.1"
   inkscape:version="0.91 r13725"
   sodipodi:docname="navpic2.svg"
   inkscape:export-filename="C:\Users\Justin\OneDrive\CollegeBrainSite\College Brain Website\navpic1.png"
   inkscape:export-xdpi="90"
   inkscape:export-ydpi="90">
  <defs
     id="defs4196" />
  <sodipodi:namedview
     id="base"
     pagecolor="#ffffff"
     bordercolor="#666666"
     borderopacity="1.0"
     inkscape:pageopacity="0.0"
     inkscape:pageshadow="2"
     inkscape:zoom="1.4"
     inkscape:cx="180.28664"
     inkscape:cy="109.06885"
     inkscape:document-units="px"
     inkscape:current-layer="layer1"
     showgrid="false"
     width="465mm"
     units="px"
     showborder="true"
     inkscape:showpageshadow="false"
     inkscape:window-width="1920"
     inkscape:window-height="1017"
     inkscape:window-x="1592"
     inkscape:window-y="-8"
     inkscape:window-maximized="1" />
  <metadata
     id="metadata4199">
    <rdf:RDF>
      <cc:Work
         rdf:about="">
        <dc:format>image/svg+xml</dc:format>
        <dc:type
           rdf:resource="http://purl.org/dc/dcmitype/StillImage" />
        <dc:title></dc:title>
      </cc:Work>
    </rdf:RDF>
  </metadata>
  <g
     inkscape:label="Layer 1"
     inkscape:groupmode="layer"
     id="layer1"
     transform="translate(0,-752.36209)">
    <rect
       style="opacity:1;fill:#466368;fill-opacity:1;stroke:#000000;stroke-width:1;stroke-linecap:round;stroke-linejoin:round;stroke-miterlimit:4;stroke-dasharray:none;stroke-opacity:0"
       id="rect4794"
       width="468.57144"
       height="302.85715"
       x="-2.1428571"
       y="751.64783" />
    <text
       style="font-size:36px;font-family:MyriadPro-Regular;fill:#000000"
       id="text38"
       font-size="36"
       x="86.357948"
       y="968.91644">
      <tspan
         style="font-style:normal;font-variant:normal;font-weight:300;font-stretch:normal;font-size:40px;font-family:Lato;-inkscape-font-specification:'Lato Light'"
         id="tspan3377">MyCollegeBrain.com</tspan>
    </text>
    <g
       id="g4155"
       transform="matrix(0.57427254,0,0,0.57427257,-31.488514,724.22246)">
      <g
         transform="translate(4.9999708,5.0000067)"
         id="g5">
        <g
           id="XMLID_1_">
          <g
             id="g8">
            <path
               d="m 131.6,303.1 c 1.1,-3.9 3.5,-7.6 6.5,-11 l 0.6,0.4 c -0.1,0.1 -0.1,0.2 -0.2,0.3 -0.2,0.4 -5,9.6 -2.4,17.9 0.5,1.5 1.2,2.9 2.1,4.1 l -4.9,0 0,-0.1 c -2.2,-3.5 -2.8,-7.4 -1.7,-11.6 z"
               id="path10"
               inkscape:connector-curvature="0"
               style="fill:#efc7ee" />
            <path
               d="m 142.3,291.8 c -1.2,-0.6 -2.8,-0.3 -3.6,0.9 l -0.6,-0.4 c 7.1,-8 17.3,-14.1 20.4,-15.8 3.7,1.8 7.4,4.1 11,7 -17.4,3.4 -23.8,20.9 -25.9,29.3 -5.6,-6.2 -0.3,-16.6 -0.1,-17.1 0.7,-1.5 0.2,-3.2 -1.2,-3.9 z"
               id="path12"
               inkscape:connector-curvature="0"
               style="fill:#efc7ee" />
            <path
               d="m 78.2,304.3 c -0.2,0.5 -0.3,1.1 -0.2,1.8 0.3,1.5 1.8,2.5 3.3,2.1 0.1,0 5.5,-1.2 8.8,1.7 2.2,2 3.1,5.5 2.7,10.6 -0.1,1.5 1,2.9 2.5,3 l 0.3,0 c 1.4,0 2.7,-1.1 2.8,-2.6 0.2,-2.9 0.1,-5.4 -0.3,-7.7 l 2.4,-0.1 c 0.8,3.2 2.9,6 5.8,8 -1.4,1.8 -2.6,3.8 -3.3,6.3 -3.6,0.9 -12.3,2 -16.6,-1.7 -2.2,-2 -3.1,-5.3 -2.5,-9.8 0.2,-1.5 -0.9,-2.9 -2.4,-3.1 -1.5,-0.2 -2.9,0.9 -3.2,2.4 -0.8,6.5 0.6,11.5 4.4,14.7 3.6,3.1 8.5,3.9 12.9,3.9 2.4,0 4.6,-0.2 6.3,-0.5 -0.1,1.8 -0.1,3.8 0,5.8 l 0.1,1.4 c -4.8,0.2 -15.4,-0.2 -22.4,-6 -4.2,-3.5 -6.6,-8.5 -7,-15.1 0,-0.2 -0.5,-7.2 3,-15.9 l 2.6,0.8 z"
               id="path14"
               inkscape:connector-curvature="0"
               style="fill:#efc7ee" />
            <path
               d="m 89.9,301.8 -0.5,1.4 c -4.5,-1.5 -9.1,-0.5 -9.3,-0.5 -0.9,0.2 -1.6,0.8 -1.9,1.6 l -2.6,-0.7 c 4.2,-10.8 14.2,-24.1 38,-30.4 7.4,-1.9 16.2,-3.2 25.4,-2.3 -1.7,1.3 -3.8,3 -6,4.9 l -0.2,0 c -1.5,-0.1 -36.8,-0.2 -43.9,23 -0.4,1.1 0,2.3 1,3 z"
               id="path16"
               inkscape:connector-curvature="0"
               style="fill:#efc7ee" />
            <path
               d="m 91.5,302.4 c 1.2,0 2.3,-0.8 2.7,-2 4.3,-14 22.5,-17.7 32.2,-18.7 -4.6,4.5 -8.8,9.4 -10.5,13.7 -5.3,0.1 -13.1,2.5 -15.5,11.2 -0.6,2.3 -0.6,4.6 0,6.7 l -2.4,0.1 c -0.7,-3.2 -2.1,-5.8 -4.3,-7.7 -1.4,-1.2 -2.9,-2 -4.4,-2.5 l 0.5,-1.4 c 0.2,0.2 0.5,0.3 0.8,0.4 l 0.9,0.2 z"
               id="path18"
               inkscape:connector-curvature="0"
               style="fill:#efc7ee" />
            <path
               d="m 146.4,272.1 c 1.9,0.4 3.7,0.9 5.6,1.6 -7.7,4.8 -22.3,15.3 -25.8,28 -1.3,4.6 -0.9,9.1 0.9,13.3 l -5.5,0 -0.4,0 c -4,0 -7.5,0.9 -10.3,2.4 -3.9,-1.7 -6,-5.6 -5,-9.4 2.2,-8 11.4,-7.1 11.8,-7 1.4,0.2 2.8,-0.8 3.1,-2.3 1.1,-6.6 15.9,-19.4 25,-26 l 0.6,-0.6 z"
               id="path20"
               inkscape:connector-curvature="0"
               style="fill:#efc7ee" />
            <path
               d="m 98,313.4 c 0.5,2.2 0.6,4.8 0.3,7.7 -0.1,1.5 -1.3,2.6 -2.8,2.6 l -0.3,0 c -1.5,-0.1 -2.7,-1.5 -2.5,-3 0.5,-5.1 -0.5,-8.6 -2.7,-10.6 -3.3,-2.9 -8.7,-1.7 -8.8,-1.7 -1.5,0.4 -3,-0.6 -3.3,-2.1 -0.1,-0.6 -0.1,-1.2 0.2,-1.8 0.3,-0.8 1,-1.4 1.9,-1.6 0.2,0 4.8,-1 9.3,0.5 1.5,0.5 3,1.3 4.4,2.5 2.2,1.7 3.7,4.2 4.3,7.5 z"
               id="path22"
               inkscape:connector-curvature="0" />
            <path
               d="m 179.1,284.4 c 7.6,7.7 30.7,35.3 9.1,67.8 -5.9,8.9 -17.3,13.2 -34.9,13.2 l -4.5,0 c -1.4,0 -2.7,0 -4,0 -9.2,0 -16.5,-0.5 -20.7,-4.6 -1.7,-1.7 -2.8,-4 -3.1,-6.7 l -1,0 c -7.7,-0.5 -13.3,-3.4 -16.2,-7.9 -4.4,0.3 -18.3,0.6 -27.8,-7.2 -5.5,-4.5 -8.5,-10.9 -9,-19 0,-0.3 -2.5,-39.6 45.1,-52.1 18,-4.8 43.9,-5.8 65.9,15.6 l 0.3,0.3 0.8,0.6 z m 4.4,64.7 c 19.2,-28.9 -1.6,-53.8 -8.4,-60.7 -18.5,0.3 -24.7,19.3 -26.4,26.6 l 10,0 c 1.5,0 2.8,1.3 2.8,2.8 0,1.6 -1.3,2.8 -2.8,2.8 l -37.1,0 c -4.9,-0.1 -8.2,1.1 -10.6,3.6 -2.8,3 -4,7.8 -3.7,14.3 l 0.1,0.8 c 0,6.2 6.9,8.9 12.9,9.2 14.6,0.9 27.3,0.7 27.4,0.7 1.4,-0.1 2.8,1.2 2.8,2.8 0,1.6 -1.2,2.8 -2.8,2.8 0,0 -0.8,0 -2.1,0 -3.4,0 -10.5,-0.1 -19,-0.4 0.3,1.2 0.9,2 1.3,2.4 3.1,3.1 11.3,3 20.7,3 l 4.5,0 c 15.8,0 25.7,-3.5 30.4,-10.7 z m -14,-65.7 c -3.6,-2.9 -7.2,-5.2 -11,-7 -3,1.7 -13.3,7.8 -20.4,15.8 -3,3.4 -5.4,7.1 -6.5,11 -1.1,4.2 -0.6,8 1.7,11.8 l 0,0.1 4.9,0 c -0.9,-1.3 -1.7,-2.6 -2.1,-4.1 -2.6,-8.3 2.1,-17.5 2.4,-17.9 0.1,-0.1 0.1,-0.2 0.2,-0.3 0.8,-1.1 2.3,-1.5 3.6,-0.9 1.4,0.7 1.9,2.4 1.2,3.8 -0.3,0.5 -5.5,10.9 0.1,17.1 2.1,-8.6 8.5,-26.1 25.9,-29.4 z M 152,273.7 c -1.9,-0.6 -3.7,-1.2 -5.6,-1.6 l -0.6,0.6 c -9.1,6.5 -23.9,19.4 -25,26 -0.3,1.5 -1.7,2.5 -3.1,2.3 -0.4,0 -9.6,-1 -11.8,7 -1,3.8 1.1,7.6 5,9.4 2.9,-1.6 6.3,-2.4 10.3,-2.4 l 0.4,0 5.5,0 c -1.8,-4.2 -2.2,-8.7 -0.9,-13.3 3.6,-12.7 18.1,-23.2 25.8,-28 z m -13.1,-2.8 c -9.2,-0.9 -18,0.4 -25.4,2.3 -23.8,6.3 -33.8,19.6 -38,30.4 -3.4,8.7 -3,15.8 -3,15.9 0.4,6.5 2.7,11.6 7,15.1 7,5.8 17.6,6.2 22.4,6 l -0.1,-1.4 c -0.1,-2.1 -0.1,-4 0,-5.8 -1.7,0.3 -3.9,0.5 -6.3,0.5 -4.3,0 -9.3,-0.8 -12.9,-3.9 -3.7,-3.3 -5.2,-8.2 -4.4,-14.7 0.2,-1.5 1.6,-2.6 3.2,-2.4 1.5,0.2 2.6,1.6 2.4,3.1 -0.6,4.6 0.2,7.9 2.5,9.8 4.2,3.7 12.9,2.6 16.6,1.7 0.7,-2.5 1.9,-4.5 3.3,-6.3 -2.9,-2 -5,-4.8 -5.8,-8 -0.6,-2.1 -0.6,-4.4 0,-6.7 2.4,-8.7 10.2,-11.1 15.5,-11.2 1.7,-4.3 5.9,-9.2 10.5,-13.7 -9.8,1 -28,4.7 -32.2,18.7 -0.4,1.2 -1.5,2 -2.7,2 l -0.8,-0.1 c -0.3,-0.1 -0.6,-0.2 -0.8,-0.4 -1,-0.7 -1.4,-1.9 -1,-3.1 7.1,-23.2 42.4,-23.1 43.9,-23 l 0.2,0 c 2.2,-1.8 4.3,-3.5 5.9,-4.8 z"
               id="path24"
               inkscape:connector-curvature="0" />
            <path
               d="m 180.3,340.9 c 1,1.2 0.8,3 -0.4,4 -0.5,0.4 -1.2,0.6 -1.8,0.6 -0.8,0 -1.6,-0.4 -2.2,-1 -3.3,-3.9 -6.4,-5.7 -9.4,-5.6 -4.3,0.3 -7.3,4.9 -7.4,5 -0.8,1.3 -2.5,1.7 -3.9,0.9 -1,-0.6 -1.5,-1.8 -1.2,-2.9 -2.9,-3.2 -5.8,-4.8 -8.5,-4.6 -4.3,0.3 -7.4,5 -7.4,5 -0.8,1.3 -2.6,1.7 -3.9,0.9 -1.3,-0.8 -1.7,-2.6 -0.9,-3.9 0.1,-0.2 2.6,-4.1 6.9,-6.3 -2.3,-2 -4.5,-3 -6.7,-2.8 -4.3,0.3 -7.3,4.9 -7.4,5 -0.8,1.3 -2.5,1.7 -3.8,0.9 -1.3,-0.8 -1.7,-2.5 -0.9,-3.9 0.2,-0.3 4.5,-7.1 11.7,-7.6 4.8,-0.4 9.4,2.1 13.8,7.2 3.5,0.3 7,2.2 10.4,5.6 2,-1.9 4.9,-3.8 8.7,-4 5.1,-0.4 9.8,2.1 14.3,7.5 z"
               id="path26"
               inkscape:connector-curvature="0" />
            <path
               d="m 158.7,333.4 c -0.8,1.3 -2.6,1.7 -3.8,0.9 -1.3,-0.8 -1.7,-2.6 -0.9,-3.9 0.2,-0.3 4.5,-7.1 11.7,-7.6 4.8,-0.3 9.6,2.2 14.1,7.6 1,1.2 0.8,2.9 -0.3,3.9 -0.5,0.4 -1.2,0.7 -1.8,0.7 -0.8,0 -1.6,-0.3 -2.1,-1 -3.3,-3.9 -6.5,-5.8 -9.4,-5.6 -4.5,0.3 -7.5,5 -7.5,5 z"
               id="path28"
               inkscape:connector-curvature="0" />
            <path
               d="m 187.9,315.7 c 0.2,1.5 -0.8,3 -2.4,3.2 l -0.4,0 c -1.4,0 -2.6,-1 -2.8,-2.4 -0.9,-6.4 -3.5,-10.4 -7.5,-12.2 -5.3,-2.3 -11.7,0.1 -13.1,0.9 -0.7,0.8 -1.9,1.1 -3,0.8 -1.4,-0.5 -2.2,-2.1 -1.8,-3.5 1,-3 9.1,-5.1 14.7,-4.6 5.2,0.5 14.2,3.4 16.3,17.8 z"
               id="path30"
               inkscape:connector-curvature="0" />
            <path
               d="m 185.6,318.9 c 1.5,-0.2 2.6,-1.6 2.4,-3.2 -2.1,-14.4 -11.1,-17.4 -16.2,-17.8 -5.6,-0.5 -13.7,1.6 -14.7,4.6 -0.5,1.5 0.3,3 1.8,3.5 1.1,0.4 2.2,0 3,-0.8 1.4,-0.8 7.8,-3.1 13.1,-0.9 4,1.7 6.6,5.8 7.5,12.2 0.2,1.4 1.4,2.4 2.8,2.4 l 0.3,0 z m -10.5,-30.5 c 6.8,7 27.6,31.8 8.4,60.7 -4.8,7.2 -14.6,10.7 -30.2,10.7 l -4.5,0 c -9.5,0 -17.6,0.1 -20.7,-3 -0.5,-0.5 -1,-1.2 -1.3,-2.4 8.5,0.4 15.7,0.4 19,0.4 1.3,0 2,0 2.1,0 1.5,0 2.8,-1.3 2.8,-2.8 0,-1.6 -1.5,-2.9 -2.8,-2.8 -0.1,0 -12.8,0.1 -27.4,-0.7 -6,-0.4 -12.9,-3 -12.9,-9.2 l -0.1,-0.8 c -0.4,-6.6 0.8,-11.4 3.7,-14.3 2.3,-2.4 5.7,-3.6 10.6,-3.6 l 37.1,0 c 1.5,0 2.8,-1.3 2.8,-2.8 0,-1.5 -1.3,-2.8 -2.8,-2.8 l -10,0 c 1.5,-7.4 7.7,-26.3 26.2,-26.6 z m -20.3,45.9 c 1.3,0.8 3,0.4 3.8,-0.9 0,0 3.1,-4.7 7.4,-5 2.9,-0.2 6.2,1.7 9.4,5.6 0.6,0.7 1.3,1 2.1,1 0.6,0 1.3,-0.2 1.8,-0.7 1.2,-1 1.3,-2.8 0.3,-3.9 -4.5,-5.4 -9.3,-7.9 -14.1,-7.6 -7.2,0.5 -11.6,7.3 -11.7,7.6 -0.7,1.4 -0.3,3.1 1,3.9 z m 2.8,3.1 c -3.4,-3.4 -6.9,-5.3 -10.4,-5.6 -4.4,-5.1 -9,-7.6 -13.8,-7.2 -7.2,0.5 -11.5,7.3 -11.7,7.6 -0.8,1.3 -0.4,3 0.9,3.9 1.3,0.8 3,0.4 3.8,-0.9 0,0 3,-4.7 7.4,-5 2.2,-0.1 4.4,0.8 6.7,2.8 -4.3,2.1 -6.8,6.1 -6.9,6.3 -0.8,1.3 -0.4,3 0.9,3.9 1.3,0.8 3,0.4 3.9,-0.9 0,0 3.1,-4.7 7.4,-5 2.7,-0.2 5.5,1.5 8.5,4.6 -0.2,1.1 0.2,2.3 1.2,2.9 1.3,0.8 3,0.4 3.9,-0.9 0,0 3.1,-4.7 7.4,-5 3,-0.1 6.1,1.7 9.4,5.6 0.6,0.7 1.4,1 2.2,1 0.6,0 1.3,-0.2 1.8,-0.6 1.2,-1 1.3,-2.8 0.4,-4 -4.5,-5.4 -9.3,-7.9 -14.1,-7.6 -4,0.3 -6.9,2.2 -8.9,4.1 z"
               id="path32"
               inkscape:connector-curvature="0"
               style="fill:#efc7ee" />
          </g>
          <g
             id="g34" />
        </g>
      </g>
      <g
         transform="translate(4.9999708,5.0000067)"
         id="g40">
        <g
           id="g42">
          <path
             d="m 174.6,279.8 0,-23.8 -38,7.6 c -1.5,0.3 -3,0.5 -4.6,0.5 -1.5,0 -3.1,-0.2 -4.6,-0.5 l -38,-7.6 0,23.7 c 0,6.1 19,11.1 42.6,11.1 23.6,0 42.6,-4.9 42.6,-11 z"
             id="path44"
             inkscape:connector-curvature="0" />
          <path
             d="m 201.5,238.7 -65.7,-13.2 c -1.2,-0.2 -2.5,-0.4 -3.7,-0.4 -1.2,0 -2.5,0.1 -3.7,0.4 l -65.7,13.2 c -4,0.8 -4,6.5 0,7.4 l 26.9,5.4 38.9,7.8 c 1.2,0.2 2.5,0.4 3.7,0.4 1.2,0 2.5,-0.1 3.7,-0.4 l 38.8,-7.8 12.1,-2.4 0,28.1 c -1.4,1.2 -2.3,3.1 -2.3,5.1 0,3.8 3.1,6.8 6.8,6.8 3.8,0 6.8,-3.1 6.8,-6.8 0,-2.1 -0.9,-3.9 -2.3,-5.1 l 0,-29.9 5.8,-1.2 c 3.9,-0.9 3.9,-6.6 -0.1,-7.4 z"
             id="path46"
             inkscape:connector-curvature="0" />
        </g>
      </g>
    </g>
  </g>
</svg>
